<svg xmlns="http://www.w3.org/2000/svg" width="16px" height="16px" viewBox="0 0 32 32">
    <path style="text-indent:0;text-align:start;line-height:normal;text-transform:none;block-progression:tb;-inkscape-font-specification:Bitstream Vera Sans" d="M 2 0 C 0.9069372 0 0 0.9069372 0 2 L 0 25 C 0 31.093063 0.9069372 32 2 32 L 30 32 C 31.093063 32 32 31.093063 32 30 L 32 2 C 32 0.9069372 31.093063 0 30 0 L 2 0 z M 2 2 L 30 2 L 30 30 L 19.8125 30 L 19.8125 18.25 L 22.40625 18.25 L 22.78125 15.25 L 19.8125 15.25 L 19.8125 13.3125 C 19.8125 12.4385 20.02825 11.84375 21.28125 11.84375 L 22.90625 11.84375 L 22.90625 9.125 C 22.62925 9.088 21.6665 9.03125 20.5625 9.03125 C 18.2585 9.03125 16.6875 10.417 16.6875 13 L 16.6875 15.25 L 14.0625 15.25 L 14.0625 18.25 L 16.6875 18.25 L 16.6875 30 L 2 30 L 2 2 z" fill="#B3AEAE" font-family="Bitstream Vera Sans"/>
</svg>